<?xml version="1.0" encoding="UTF-8"?>
<svg id="Layer_2" data-name="Layer 2" xmlns="http://www.w3.org/2000/svg" viewBox="0 0 2321.78 1861.91">
  <defs>
    <style>
      .cls-1 {
        fill: #f7f7ff;
      }

      .cls-1, .cls-2 {
        stroke-width: 0px;
      }

      .cls-2 {
        fill: #fc440f;
      }
    </style>
  </defs>
  <g id="Layer_1-2" data-name="Layer 1">
    <g>
      <g>
        <circle class="cls-1" cx="1387.25" cy="1692.22" r="169.69"/>
        <circle class="cls-1" cx="738.08" cy="1692.22" r="169.69"/>
        <path class="cls-1" d="M545.23,1124.11c13.98,35.64,48.37,59.1,86.62,59.1h880.09s-31.7,109.34-31.7,109.34h-959.79c-36.95,0-67.03,29.58-67.71,66.4-.75,37.94,31.52,69.02,69.46,69.02h1008.9c30.14,0,56.67-19.91,65.03-48.87L1943.44,181.23h310.61c36.95,0,67.03-29.58,67.71-66.4.75-37.94-31.52-69.02-69.46-69.02h-359.73c-30.14,0-56.67,19.91-65.03,48.87l-67.53,232.79H335.98c-49.62,0-83.63,49.93-65.53,96.11l274.79,700.54Z"/>
      </g>
      <circle class="cls-2" cx="331.3" cy="331.3" r="331.3"/>
      <path class="cls-1" d="M241.59,258.83v-102.03h166.29v358.59h-114.3v-256.56h-52Z"/>
    </g>
  </g>
</svg>