<?xml version="1.0" encoding="UTF-8"?>
<svg id="Layer_2" data-name="Layer 2" xmlns="http://www.w3.org/2000/svg" xmlns:xlink="http://www.w3.org/1999/xlink" viewBox="0 0 76.86 76.86">
  <defs>
    <style>
      .cls-1 {
        fill: url(#linear-gradient);
      }

      .cls-1, .cls-2 {
        stroke-width: 0px;
      }

      .cls-3 {
        stroke-width: .99px;
      }

      .cls-3, .cls-4 {
        stroke-linecap: round;
        stroke-linejoin: round;
      }

      .cls-3, .cls-4, .cls-5 {
        fill: none;
        stroke: #000;
      }

      .cls-4 {
        stroke-width: .98px;
      }

      .cls-2 {
        fill: #000;
      }

      .cls-5 {
        stroke-miterlimit: 10;
      }
    </style>
    <linearGradient id="linear-gradient" x1="6.15" y1="56.64" x2="72.21" y2="19.37" gradientUnits="userSpaceOnUse">
      <stop offset="0" stop-color="#db8200"/>
      <stop offset="1" stop-color="#ff9700"/>
    </linearGradient>
  </defs>
  <g id="Layer_1-2" data-name="Layer 1">
    <g>
      <g>
        <path class="cls-1" d="M38.43,76.36C17.52,76.36.5,59.34.5,38.43S17.52.5,38.43.5s37.93,17.02,37.93,37.93-17.02,37.93-37.93,37.93Z"/>
        <path class="cls-2" d="M38.43,1c20.64,0,37.43,16.79,37.43,37.43s-16.79,37.43-37.43,37.43S1,59.07,1,38.43,17.79,1,38.43,1M38.43,0C17.21,0,0,17.21,0,38.43s17.21,38.43,38.43,38.43,38.43-17.21,38.43-38.43S59.65,0,38.43,0h0Z"/>
      </g>
      <line class="cls-5" x1="38.43" x2="38.43" y2="76.86"/>
      <path class="cls-3" d="M60.72,68.93c-8.49-20.33-8.49-40.67,0-61"/>
      <path class="cls-3" d="M16.88,68.93c8.49-20.33,8.49-40.67,0-61"/>
      <line class="cls-4" x1="1.09" y1="38.43" x2="75.77" y2="38.43"/>
    </g>
  </g>
</svg>