<?xml version="1.0" encoding="utf-8"?>
<!-- Generator: Adobe Illustrator 22.0.0, SVG Export Plug-In . SVG Version: 6.00 Build 0)  -->
<svg version="1.1" id="Layer_1" xmlns="http://www.w3.org/2000/svg" xmlns:xlink="http://www.w3.org/1999/xlink" x="0px" y="0px"
	 viewBox="0 0 4000 4000" style="enable-background:new 0 0 4000 4000;" xml:space="preserve">
<style type="text/css">
	.st0{fill:#231F20;}
</style>
<g id="XMLID_1_">
	<circle id="XMLID_2_" class="st0" cx="1850" cy="3183.1" r="271.9"/>
	<circle id="XMLID_6_" class="st0" cx="2890.2" cy="3183.1" r="271.9"/>
	<path id="XMLID_8_" class="st0" d="M3639.5,1150.3c29-74-25.5-154-105-154H1252.7l-108.2-373c-13.4-46.4-55.9-78.3-104.2-78.3
		H463.9c-60.8,0-112.5,49.8-111.3,110.6c1.1,59,49.3,106.4,108.5,106.4h497.7l556.5,1919.4c13.4,46.4,55.9,78.3,104.2,78.3h1616.6
		c60.8,0,112.5-49.8,111.3-110.6c-1.1-59-49.3-106.4-108.5-106.4H1701l-50.8-175.2h1410.2c61.3,0,116.4-37.6,138.8-94.7
		L3639.5,1150.3z"/>
</g>
</svg>
