<?xml version="1.0" encoding="UTF-8"?>
<svg id="Layer_1" data-name="Layer 1" xmlns="http://www.w3.org/2000/svg" version="1.1" viewBox="0 0 4000 4000">
  <defs>
    <style>
      .cls-1, .cls-2 {
        fill: #f7f7ff;
        stroke-width: 0px;
      }

      .cls-2 {
        fill-opacity: 0;
      }
    </style>
  </defs>
  <g>
    <circle class="cls-1" cx="1986.9" cy="2997.5" r="169.7"/>
    <circle class="cls-1" cx="1337.8" cy="2997.5" r="169.7"/>
    <path class="cls-1" d="M1144.9,2429.4c14,35.6,48.4,59.1,86.6,59.1h880.1l-31.7,109.3h-959.8c-36.9,0-67,29.6-67.7,66.4-.7,37.9,31.5,69,69.5,69h1008.9c30.1,0,56.7-19.9,65-48.9l347.3-1197.8h310.6c36.9,0,67-29.6,67.7-66.4.7-37.9-31.5-69-69.5-69h-359.7c-30.1,0-56.7,19.9-65,48.9l-67.5,232.8H935.7c-49.6,0-83.6,49.9-65.5,96.1l274.8,700.5h0Z"/>
  </g>
  <rect class="cls-2" x="599.7" y="1305.3" width="2321.8" height="1861.9"/>
</svg>